<svg xmlns="http://www.w3.org/2000/svg" viewBox="0 0 320 400" width="320" height="400" role="img" aria-label="candy carnival slot cover">
<defs>
<linearGradient id="sky" x1="0" y1="0" x2="0" y2="1"><stop offset="0" stop-color="#7b3aa8" stop-opacity="0.55"/><stop offset="0.5" stop-color="#0b0718"/><stop offset="1" stop-color="#050310"/></linearGradient>
<radialGradient id="glow" cx="0.62" cy="0.28" r="0.6"><stop offset="0" stop-color="#ff7bd0" stop-opacity="0.45"/><stop offset="1" stop-color="#ff7bd0" stop-opacity="0"/></radialGradient>
<linearGradient id="vin" x1="0" y1="0" x2="0" y2="1"><stop offset="0.55" stop-color="#000" stop-opacity="0"/><stop offset="1" stop-color="#000" stop-opacity="0.6"/></linearGradient>
</defs>
<rect width="320" height="400" fill="url(#sky)"/>
<rect width="320" height="400" fill="url(#glow)"/>
<circle cx="244.2" cy="210.6" r="1.25" fill="#ffffff" opacity="0.60"/><circle cx="190.0" cy="116.1" r="1.55" fill="#ffffff" opacity="0.75"/><circle cx="135.7" cy="123.2" r="0.87" fill="#ffffff" opacity="0.48"/><circle cx="108.3" cy="84.8" r="1.52" fill="#ffffff" opacity="0.92"/><circle cx="307.9" cy="51.9" r="1.04" fill="#ffffff" opacity="0.36"/><circle cx="190.8" cy="117.8" r="0.99" fill="#ffffff" opacity="0.80"/><circle cx="295.6" cy="129.8" r="1.93" fill="#ffffff" opacity="0.76"/><circle cx="81.0" cy="175.5" r="1.03" fill="#ffffff" opacity="0.68"/><circle cx="81.6" cy="118.6" r="1.77" fill="#ffffff" opacity="0.78"/><circle cx="189.1" cy="1.5" r="1.77" fill="#ffffff" opacity="0.83"/><circle cx="231.9" cy="177.9" r="0.50" fill="#ffffff" opacity="0.80"/><circle cx="30.1" cy="35.9" r="1.30" fill="#ffffff" opacity="0.77"/><circle cx="264.7" cy="77.9" r="1.99" fill="#ffffff" opacity="0.48"/><circle cx="120.5" cy="53.1" r="0.63" fill="#ffffff" opacity="0.64"/><circle cx="22.2" cy="157.8" r="1.11" fill="#ffffff" opacity="0.56"/><circle cx="158.2" cy="128.2" r="1.01" fill="#ffffff" opacity="0.73"/><circle cx="48.9" cy="129.9" r="1.34" fill="#ffffff" opacity="0.58"/><circle cx="127.4" cy="97.8" r="1.05" fill="#ffffff" opacity="0.49"/><circle cx="20.2" cy="215.8" r="1.05" fill="#ffffff" opacity="0.47"/><circle cx="299.9" cy="12.2" r="1.15" fill="#ffffff" opacity="0.88"/><circle cx="130.4" cy="71.9" r="0.72" fill="#ffffff" opacity="0.76"/><circle cx="28.2" cy="116.5" r="0.72" fill="#ffffff" opacity="0.39"/><circle cx="269.7" cy="6.6" r="0.87" fill="#ffffff" opacity="0.60"/><circle cx="253.2" cy="188.8" r="1.53" fill="#ffffff" opacity="0.75"/><circle cx="236.3" cy="72.5" r="0.88" fill="#ffffff" opacity="0.67"/><circle cx="77.9" cy="193.3" r="0.68" fill="#ffffff" opacity="0.45"/><circle cx="102.8" cy="216.4" r="1.74" fill="#ffffff" opacity="0.81"/><circle cx="63.4" cy="247.3" r="0.63" fill="#ffffff" opacity="0.51"/><circle cx="155.8" cy="223.9" r="0.55" fill="#ffffff" opacity="0.55"/><circle cx="107.8" cy="97.1" r="0.62" fill="#ffffff" opacity="0.68"/><circle cx="29.0" cy="87.1" r="1.38" fill="#ffffff" opacity="0.35"/><circle cx="288.6" cy="123.3" r="0.58" fill="#ffffff" opacity="0.82"/><circle cx="30.9" cy="222.6" r="1.02" fill="#ffffff" opacity="0.65"/><circle cx="209.4" cy="52.8" r="0.65" fill="#ffffff" opacity="0.57"/><circle cx="262.5" cy="59.4" r="1.94" fill="#ffffff" opacity="0.56"/><circle cx="229.3" cy="19.1" r="1.40" fill="#ffffff" opacity="0.87"/><circle cx="200.8" cy="112.4" r="1.38" fill="#ffffff" opacity="0.82"/><circle cx="77.3" cy="153.4" r="0.49" fill="#ffffff" opacity="0.40"/><circle cx="96.1" cy="27.2" r="1.07" fill="#ffffff" opacity="0.47"/><circle cx="3.1" cy="142.6" r="1.17" fill="#ffffff" opacity="0.79"/><circle cx="10.7" cy="157.4" r="1.01" fill="#ffffff" opacity="0.70"/><circle cx="224.2" cy="16.5" r="0.63" fill="#ffffff" opacity="0.41"/><circle cx="117.3" cy="39.7" r="1.26" fill="#ffffff" opacity="0.42"/><circle cx="75.6" cy="180.8" r="0.93" fill="#ffffff" opacity="0.65"/><circle cx="99.2" cy="205.3" r="1.40" fill="#ffffff" opacity="0.56"/><circle cx="256.6" cy="88.8" r="0.92" fill="#ffffff" opacity="0.59"/>
<circle cx="160" cy="150" r="66" fill="#ff7bd0"/><circle cx="160" cy="150" r="66" fill="none" stroke="#fff" stroke-width="10" stroke-dasharray="20 22" opacity="0.85"/><circle cx="160" cy="150" r="30" fill="#7b3aa8"/><circle cx="80" cy="270" r="20" fill="#ff7bd0" opacity="0.9"/><circle cx="245" cy="255" r="26" fill="#7b3aa8" opacity="0.9"/>
<rect width="320" height="400" fill="url(#vin)"/>
<rect x="6" y="6" width="308" height="388" rx="18" fill="none" stroke="#ff7bd0" stroke-width="2" opacity="0.5"/>
</svg>
