<svg xmlns="http://www.w3.org/2000/svg" viewBox="0 0 320 400" width="320" height="400" role="img" aria-label="cosmic voyage slot cover">
<defs>
<linearGradient id="sky" x1="0" y1="0" x2="0" y2="1"><stop offset="0" stop-color="#c04cff" stop-opacity="0.55"/><stop offset="0.5" stop-color="#0b0718"/><stop offset="1" stop-color="#050310"/></linearGradient>
<radialGradient id="glow" cx="0.62" cy="0.28" r="0.6"><stop offset="0" stop-color="#5b8cff" stop-opacity="0.45"/><stop offset="1" stop-color="#5b8cff" stop-opacity="0"/></radialGradient>
<linearGradient id="vin" x1="0" y1="0" x2="0" y2="1"><stop offset="0.55" stop-color="#000" stop-opacity="0"/><stop offset="1" stop-color="#000" stop-opacity="0.6"/></linearGradient>
</defs>
<rect width="320" height="400" fill="url(#sky)"/>
<rect width="320" height="400" fill="url(#glow)"/>
<circle cx="150.8" cy="79.1" r="1.59" fill="#ffffff" opacity="0.41"/><circle cx="273.5" cy="36.1" r="1.58" fill="#ffffff" opacity="0.91"/><circle cx="214.5" cy="119.3" r="1.68" fill="#ffffff" opacity="0.93"/><circle cx="54.0" cy="186.5" r="0.50" fill="#ffffff" opacity="0.55"/><circle cx="216.8" cy="143.6" r="1.08" fill="#ffffff" opacity="0.79"/><circle cx="173.2" cy="172.8" r="1.52" fill="#ffffff" opacity="0.84"/><circle cx="99.9" cy="210.7" r="0.82" fill="#ffffff" opacity="0.60"/><circle cx="109.8" cy="141.6" r="0.77" fill="#ffffff" opacity="0.66"/><circle cx="10.2" cy="212.1" r="1.90" fill="#ffffff" opacity="0.70"/><circle cx="195.9" cy="96.8" r="1.75" fill="#ffffff" opacity="0.67"/><circle cx="194.2" cy="209.0" r="1.58" fill="#ffffff" opacity="0.45"/><circle cx="181.0" cy="191.6" r="1.17" fill="#ffffff" opacity="0.79"/><circle cx="254.7" cy="169.7" r="0.57" fill="#ffffff" opacity="0.87"/><circle cx="46.0" cy="64.7" r="0.64" fill="#ffffff" opacity="0.85"/><circle cx="40.9" cy="58.9" r="1.96" fill="#ffffff" opacity="0.72"/><circle cx="15.3" cy="92.8" r="1.16" fill="#ffffff" opacity="0.56"/><circle cx="98.1" cy="148.6" r="1.34" fill="#ffffff" opacity="0.47"/><circle cx="1.0" cy="148.7" r="0.81" fill="#ffffff" opacity="0.47"/><circle cx="64.7" cy="151.0" r="1.11" fill="#ffffff" opacity="0.83"/><circle cx="100.6" cy="109.6" r="0.77" fill="#ffffff" opacity="0.37"/><circle cx="73.0" cy="52.2" r="1.69" fill="#ffffff" opacity="0.46"/><circle cx="14.9" cy="96.6" r="1.22" fill="#ffffff" opacity="0.90"/><circle cx="296.6" cy="247.4" r="0.47" fill="#ffffff" opacity="0.58"/><circle cx="4.1" cy="64.1" r="0.68" fill="#ffffff" opacity="0.67"/><circle cx="270.7" cy="156.9" r="0.69" fill="#ffffff" opacity="0.39"/><circle cx="86.6" cy="3.4" r="1.59" fill="#ffffff" opacity="0.60"/><circle cx="188.4" cy="49.0" r="1.21" fill="#ffffff" opacity="0.72"/><circle cx="143.2" cy="182.9" r="1.88" fill="#ffffff" opacity="0.77"/><circle cx="209.4" cy="110.9" r="1.44" fill="#ffffff" opacity="0.43"/><circle cx="119.8" cy="88.8" r="1.20" fill="#ffffff" opacity="0.72"/><circle cx="44.1" cy="60.6" r="1.64" fill="#ffffff" opacity="0.66"/><circle cx="197.2" cy="175.6" r="1.65" fill="#ffffff" opacity="0.87"/><circle cx="195.3" cy="95.4" r="1.76" fill="#ffffff" opacity="0.50"/><circle cx="89.9" cy="241.8" r="2.00" fill="#ffffff" opacity="0.62"/><circle cx="94.0" cy="18.7" r="0.67" fill="#ffffff" opacity="0.87"/><circle cx="216.4" cy="161.4" r="1.33" fill="#ffffff" opacity="0.36"/><circle cx="20.1" cy="195.0" r="0.96" fill="#ffffff" opacity="0.57"/><circle cx="60.8" cy="40.2" r="1.10" fill="#ffffff" opacity="0.38"/><circle cx="47.4" cy="44.2" r="0.94" fill="#ffffff" opacity="0.59"/><circle cx="115.8" cy="60.4" r="1.06" fill="#ffffff" opacity="0.76"/><circle cx="126.6" cy="165.2" r="0.72" fill="#ffffff" opacity="0.52"/><circle cx="73.8" cy="37.6" r="1.65" fill="#ffffff" opacity="0.53"/><circle cx="134.8" cy="67.6" r="0.95" fill="#ffffff" opacity="0.94"/><circle cx="141.0" cy="117.5" r="1.20" fill="#ffffff" opacity="0.71"/><circle cx="163.2" cy="37.9" r="1.31" fill="#ffffff" opacity="0.48"/><circle cx="43.3" cy="106.1" r="1.21" fill="#ffffff" opacity="0.55"/>
<circle cx="180" cy="150" r="52" fill="#5b8cff"/><circle cx="180" cy="150" r="52" fill="#000" opacity="0.15"/><ellipse cx="180" cy="150" rx="86" ry="24" fill="none" stroke="#c04cff" stroke-width="6" opacity="0.85" transform="rotate(-20 180 150)"/><circle cx="250" cy="205" r="10" fill="#c04cff"/><polygon points="95,250 103,272 126,272 108,286 115,308 95,294 75,308 82,286 64,272 87,272" fill="#5b8cff" opacity="0.9"/>
<rect width="320" height="400" fill="url(#vin)"/>
<rect x="6" y="6" width="308" height="388" rx="18" fill="none" stroke="#5b8cff" stroke-width="2" opacity="0.5"/>
</svg>
