<svg xmlns="http://www.w3.org/2000/svg" viewBox="0 0 320 400" width="320" height="400" role="img" aria-label="dragon peak slot cover">
<defs>
<linearGradient id="sky" x1="0" y1="0" x2="0" y2="1"><stop offset="0" stop-color="#7a1f12" stop-opacity="0.55"/><stop offset="0.5" stop-color="#0b0718"/><stop offset="1" stop-color="#050310"/></linearGradient>
<radialGradient id="glow" cx="0.62" cy="0.28" r="0.6"><stop offset="0" stop-color="#ff5b25" stop-opacity="0.45"/><stop offset="1" stop-color="#ff5b25" stop-opacity="0"/></radialGradient>
<linearGradient id="vin" x1="0" y1="0" x2="0" y2="1"><stop offset="0.55" stop-color="#000" stop-opacity="0"/><stop offset="1" stop-color="#000" stop-opacity="0.6"/></linearGradient>
</defs>
<rect width="320" height="400" fill="url(#sky)"/>
<rect width="320" height="400" fill="url(#glow)"/>
<circle cx="284.2" cy="64.0" r="0.66" fill="#ffffff" opacity="0.63"/><circle cx="84.4" cy="66.7" r="1.05" fill="#ffffff" opacity="0.83"/><circle cx="119.2" cy="92.8" r="1.76" fill="#ffffff" opacity="0.56"/><circle cx="176.4" cy="180.3" r="0.67" fill="#ffffff" opacity="0.68"/><circle cx="299.7" cy="50.9" r="0.79" fill="#ffffff" opacity="0.80"/><circle cx="76.9" cy="47.5" r="1.99" fill="#ffffff" opacity="0.75"/><circle cx="200.2" cy="151.3" r="1.76" fill="#ffffff" opacity="0.82"/><circle cx="40.0" cy="141.0" r="1.85" fill="#ffffff" opacity="0.42"/><circle cx="7.6" cy="16.3" r="1.03" fill="#ffffff" opacity="0.91"/><circle cx="94.0" cy="20.7" r="1.02" fill="#ffffff" opacity="0.88"/><circle cx="156.1" cy="98.2" r="1.30" fill="#ffffff" opacity="0.46"/><circle cx="41.5" cy="145.9" r="1.03" fill="#ffffff" opacity="0.84"/><circle cx="2.2" cy="17.2" r="0.78" fill="#ffffff" opacity="0.64"/><circle cx="57.7" cy="175.6" r="1.70" fill="#ffffff" opacity="0.78"/><circle cx="141.8" cy="56.9" r="0.54" fill="#ffffff" opacity="0.88"/><circle cx="2.6" cy="201.5" r="1.74" fill="#ffffff" opacity="0.57"/><circle cx="234.4" cy="227.9" r="0.82" fill="#ffffff" opacity="0.93"/><circle cx="253.1" cy="216.3" r="1.60" fill="#ffffff" opacity="0.41"/><circle cx="116.3" cy="101.2" r="1.28" fill="#ffffff" opacity="0.65"/><circle cx="243.4" cy="210.8" r="1.22" fill="#ffffff" opacity="0.57"/><circle cx="77.0" cy="156.2" r="0.75" fill="#ffffff" opacity="0.62"/><circle cx="169.2" cy="234.5" r="0.66" fill="#ffffff" opacity="0.51"/><circle cx="98.3" cy="181.2" r="1.28" fill="#ffffff" opacity="0.41"/><circle cx="252.2" cy="216.5" r="1.87" fill="#ffffff" opacity="0.57"/><circle cx="37.6" cy="69.4" r="0.55" fill="#ffffff" opacity="0.56"/><circle cx="200.5" cy="168.9" r="1.88" fill="#ffffff" opacity="0.74"/><circle cx="204.3" cy="162.9" r="0.73" fill="#ffffff" opacity="0.94"/><circle cx="80.8" cy="35.5" r="1.78" fill="#ffffff" opacity="0.92"/><circle cx="159.5" cy="179.7" r="0.45" fill="#ffffff" opacity="0.56"/><circle cx="187.1" cy="64.6" r="0.55" fill="#ffffff" opacity="0.63"/><circle cx="169.9" cy="1.6" r="0.88" fill="#ffffff" opacity="0.79"/><circle cx="219.6" cy="98.5" r="0.82" fill="#ffffff" opacity="0.59"/><circle cx="279.9" cy="150.8" r="1.34" fill="#ffffff" opacity="0.38"/><circle cx="279.8" cy="228.8" r="1.66" fill="#ffffff" opacity="0.53"/><circle cx="245.6" cy="138.8" r="0.41" fill="#ffffff" opacity="0.67"/><circle cx="27.8" cy="185.6" r="1.14" fill="#ffffff" opacity="0.68"/><circle cx="212.0" cy="215.5" r="0.77" fill="#ffffff" opacity="0.37"/><circle cx="232.9" cy="103.1" r="1.65" fill="#ffffff" opacity="0.80"/><circle cx="113.2" cy="37.7" r="0.73" fill="#ffffff" opacity="0.55"/><circle cx="131.6" cy="187.1" r="1.50" fill="#ffffff" opacity="0.85"/><circle cx="263.2" cy="195.0" r="1.54" fill="#ffffff" opacity="0.62"/><circle cx="151.5" cy="222.4" r="1.31" fill="#ffffff" opacity="0.72"/><circle cx="165.0" cy="152.3" r="0.66" fill="#ffffff" opacity="0.36"/><circle cx="305.5" cy="102.1" r="1.13" fill="#ffffff" opacity="0.82"/><circle cx="238.7" cy="150.1" r="1.27" fill="#ffffff" opacity="0.45"/><circle cx="144.8" cy="13.2" r="1.09" fill="#ffffff" opacity="0.59"/>
<circle cx="200" cy="110" r="40" fill="#ff5b25" opacity="0.8"/><polygon points="20,300 150,120 210,210 250,160 320,300" fill="#7a1f12"/><polygon points="120,168 150,120 185,175 150,205" fill="#fff" opacity="0.85"/><polygon points="235,178 250,160 275,205" fill="#fff" opacity="0.7"/>
<rect width="320" height="400" fill="url(#vin)"/>
<rect x="6" y="6" width="308" height="388" rx="18" fill="none" stroke="#ff5b25" stroke-width="2" opacity="0.5"/>
</svg>
