<svg xmlns="http://www.w3.org/2000/svg" viewBox="0 0 320 400" width="320" height="400" role="img" aria-label="midnight saloon slot cover">
<defs>
<linearGradient id="sky" x1="0" y1="0" x2="0" y2="1"><stop offset="0" stop-color="#3a1f5c" stop-opacity="0.55"/><stop offset="0.5" stop-color="#0b0718"/><stop offset="1" stop-color="#050310"/></linearGradient>
<radialGradient id="glow" cx="0.62" cy="0.28" r="0.6"><stop offset="0" stop-color="#e0a63c" stop-opacity="0.45"/><stop offset="1" stop-color="#e0a63c" stop-opacity="0"/></radialGradient>
<linearGradient id="vin" x1="0" y1="0" x2="0" y2="1"><stop offset="0.55" stop-color="#000" stop-opacity="0"/><stop offset="1" stop-color="#000" stop-opacity="0.6"/></linearGradient>
</defs>
<rect width="320" height="400" fill="url(#sky)"/>
<rect width="320" height="400" fill="url(#glow)"/>
<circle cx="17.5" cy="94.2" r="0.74" fill="#ffffff" opacity="0.45"/><circle cx="47.4" cy="161.1" r="1.02" fill="#ffffff" opacity="0.82"/><circle cx="140.8" cy="142.8" r="0.53" fill="#ffffff" opacity="0.83"/><circle cx="52.0" cy="18.8" r="1.30" fill="#ffffff" opacity="0.90"/><circle cx="123.8" cy="75.8" r="1.14" fill="#ffffff" opacity="0.93"/><circle cx="114.6" cy="48.2" r="1.70" fill="#ffffff" opacity="0.68"/><circle cx="184.0" cy="17.2" r="0.87" fill="#ffffff" opacity="0.64"/><circle cx="174.6" cy="202.7" r="1.60" fill="#ffffff" opacity="0.94"/><circle cx="49.9" cy="95.8" r="0.91" fill="#ffffff" opacity="0.52"/><circle cx="148.9" cy="114.4" r="1.11" fill="#ffffff" opacity="0.82"/><circle cx="94.5" cy="153.7" r="0.82" fill="#ffffff" opacity="0.73"/><circle cx="196.1" cy="169.5" r="0.70" fill="#ffffff" opacity="0.95"/><circle cx="96.3" cy="211.7" r="1.11" fill="#ffffff" opacity="0.56"/><circle cx="176.0" cy="170.2" r="1.92" fill="#ffffff" opacity="0.55"/><circle cx="208.0" cy="188.9" r="1.97" fill="#ffffff" opacity="0.84"/><circle cx="105.3" cy="218.6" r="1.08" fill="#ffffff" opacity="0.63"/><circle cx="225.5" cy="105.4" r="0.72" fill="#ffffff" opacity="0.76"/><circle cx="135.5" cy="7.7" r="1.03" fill="#ffffff" opacity="0.62"/><circle cx="225.6" cy="183.1" r="0.98" fill="#ffffff" opacity="0.65"/><circle cx="151.8" cy="139.5" r="0.74" fill="#ffffff" opacity="0.43"/><circle cx="81.2" cy="137.1" r="1.55" fill="#ffffff" opacity="0.45"/><circle cx="109.6" cy="125.4" r="1.16" fill="#ffffff" opacity="0.79"/><circle cx="169.6" cy="148.6" r="1.49" fill="#ffffff" opacity="0.86"/><circle cx="266.6" cy="98.1" r="0.58" fill="#ffffff" opacity="0.51"/><circle cx="72.5" cy="173.4" r="1.45" fill="#ffffff" opacity="0.52"/><circle cx="20.9" cy="147.2" r="0.51" fill="#ffffff" opacity="0.69"/><circle cx="275.8" cy="74.3" r="0.98" fill="#ffffff" opacity="0.79"/><circle cx="96.6" cy="8.8" r="1.90" fill="#ffffff" opacity="0.38"/><circle cx="65.6" cy="220.4" r="1.71" fill="#ffffff" opacity="0.87"/><circle cx="160.9" cy="4.9" r="1.10" fill="#ffffff" opacity="0.80"/><circle cx="288.7" cy="2.0" r="0.87" fill="#ffffff" opacity="0.77"/><circle cx="208.3" cy="213.5" r="0.86" fill="#ffffff" opacity="0.84"/><circle cx="193.0" cy="134.2" r="1.42" fill="#ffffff" opacity="0.58"/><circle cx="262.6" cy="179.4" r="0.48" fill="#ffffff" opacity="0.43"/><circle cx="150.5" cy="14.0" r="1.07" fill="#ffffff" opacity="0.81"/><circle cx="54.6" cy="67.3" r="1.64" fill="#ffffff" opacity="0.67"/><circle cx="255.4" cy="8.1" r="0.97" fill="#ffffff" opacity="0.76"/><circle cx="287.7" cy="166.1" r="0.81" fill="#ffffff" opacity="0.84"/><circle cx="240.1" cy="122.4" r="0.55" fill="#ffffff" opacity="0.77"/><circle cx="276.6" cy="226.2" r="1.48" fill="#ffffff" opacity="0.68"/><circle cx="105.5" cy="101.8" r="0.82" fill="#ffffff" opacity="0.71"/><circle cx="227.3" cy="92.7" r="1.74" fill="#ffffff" opacity="0.49"/><circle cx="122.2" cy="42.3" r="1.70" fill="#ffffff" opacity="0.53"/><circle cx="218.8" cy="199.3" r="0.64" fill="#ffffff" opacity="0.62"/><circle cx="163.9" cy="134.1" r="0.92" fill="#ffffff" opacity="0.88"/><circle cx="299.2" cy="91.6" r="0.62" fill="#ffffff" opacity="0.84"/>
<circle cx="235" cy="105" r="30" fill="#e0a63c" opacity="0.9"/><circle cx="224" cy="100" r="26" fill="#0b0718"/><rect x="70" y="200" width="180" height="100" fill="#3a1f5c"/><polygon points="60,200 260,200 230,160 90,160" fill="#e0a63c" opacity="0.9"/><rect x="150" y="245" width="20" height="55" fill="#000" opacity="0.4"/><rect x="92" y="220" width="34" height="34" fill="#e0a63c" opacity="0.5"/><rect x="194" y="220" width="34" height="34" fill="#e0a63c" opacity="0.5"/>
<rect width="320" height="400" fill="url(#vin)"/>
<rect x="6" y="6" width="308" height="388" rx="18" fill="none" stroke="#e0a63c" stroke-width="2" opacity="0.5"/>
</svg>
