<svg xmlns="http://www.w3.org/2000/svg" viewBox="0 0 320 400" width="320" height="400" role="img" aria-label="vegas gold slot cover">
<defs>
<linearGradient id="sky" x1="0" y1="0" x2="0" y2="1"><stop offset="0" stop-color="#8b101c" stop-opacity="0.55"/><stop offset="0.5" stop-color="#0b0718"/><stop offset="1" stop-color="#050310"/></linearGradient>
<radialGradient id="glow" cx="0.62" cy="0.28" r="0.6"><stop offset="0" stop-color="#ffc52f" stop-opacity="0.45"/><stop offset="1" stop-color="#ffc52f" stop-opacity="0"/></radialGradient>
<linearGradient id="vin" x1="0" y1="0" x2="0" y2="1"><stop offset="0.55" stop-color="#000" stop-opacity="0"/><stop offset="1" stop-color="#000" stop-opacity="0.6"/></linearGradient>
</defs>
<rect width="320" height="400" fill="url(#sky)"/>
<rect width="320" height="400" fill="url(#glow)"/>
<circle cx="190.9" cy="180.4" r="1.00" fill="#ffffff" opacity="0.44"/><circle cx="204.0" cy="128.1" r="1.19" fill="#ffffff" opacity="0.61"/><circle cx="123.6" cy="78.1" r="1.87" fill="#ffffff" opacity="0.93"/><circle cx="67.6" cy="194.3" r="1.63" fill="#ffffff" opacity="0.43"/><circle cx="156.4" cy="181.0" r="0.44" fill="#ffffff" opacity="0.93"/><circle cx="260.7" cy="124.6" r="0.68" fill="#ffffff" opacity="0.42"/><circle cx="4.4" cy="180.4" r="1.80" fill="#ffffff" opacity="0.75"/><circle cx="1.2" cy="168.9" r="0.93" fill="#ffffff" opacity="0.86"/><circle cx="306.2" cy="25.2" r="0.77" fill="#ffffff" opacity="0.70"/><circle cx="41.7" cy="50.5" r="0.70" fill="#ffffff" opacity="0.86"/><circle cx="131.5" cy="138.9" r="0.59" fill="#ffffff" opacity="0.80"/><circle cx="135.5" cy="113.7" r="1.12" fill="#ffffff" opacity="0.66"/><circle cx="148.9" cy="21.0" r="1.26" fill="#ffffff" opacity="0.42"/><circle cx="284.4" cy="50.6" r="1.50" fill="#ffffff" opacity="0.78"/><circle cx="138.9" cy="29.4" r="0.41" fill="#ffffff" opacity="0.73"/><circle cx="93.6" cy="155.0" r="0.78" fill="#ffffff" opacity="0.94"/><circle cx="115.0" cy="92.0" r="0.53" fill="#ffffff" opacity="0.62"/><circle cx="35.3" cy="93.5" r="1.75" fill="#ffffff" opacity="0.43"/><circle cx="62.4" cy="52.6" r="0.80" fill="#ffffff" opacity="0.75"/><circle cx="178.7" cy="101.1" r="1.62" fill="#ffffff" opacity="0.74"/><circle cx="68.4" cy="34.5" r="1.48" fill="#ffffff" opacity="0.83"/><circle cx="8.1" cy="200.0" r="1.89" fill="#ffffff" opacity="0.80"/><circle cx="126.0" cy="134.6" r="0.82" fill="#ffffff" opacity="0.60"/><circle cx="30.4" cy="104.5" r="1.36" fill="#ffffff" opacity="0.75"/><circle cx="132.4" cy="53.9" r="0.97" fill="#ffffff" opacity="0.85"/><circle cx="64.4" cy="196.7" r="0.85" fill="#ffffff" opacity="0.46"/><circle cx="278.5" cy="22.5" r="0.70" fill="#ffffff" opacity="0.54"/><circle cx="24.8" cy="133.1" r="1.67" fill="#ffffff" opacity="0.74"/><circle cx="200.7" cy="132.2" r="1.46" fill="#ffffff" opacity="0.50"/><circle cx="160.1" cy="175.8" r="0.51" fill="#ffffff" opacity="0.91"/><circle cx="168.6" cy="169.7" r="1.69" fill="#ffffff" opacity="0.67"/><circle cx="311.3" cy="176.4" r="0.69" fill="#ffffff" opacity="0.52"/><circle cx="14.0" cy="96.1" r="1.62" fill="#ffffff" opacity="0.57"/><circle cx="245.4" cy="206.7" r="0.85" fill="#ffffff" opacity="0.48"/><circle cx="46.4" cy="241.6" r="0.66" fill="#ffffff" opacity="0.94"/><circle cx="216.7" cy="106.1" r="1.73" fill="#ffffff" opacity="0.49"/><circle cx="213.8" cy="239.1" r="0.83" fill="#ffffff" opacity="0.65"/><circle cx="117.7" cy="122.5" r="0.85" fill="#ffffff" opacity="0.74"/><circle cx="249.3" cy="138.8" r="1.56" fill="#ffffff" opacity="0.79"/><circle cx="307.7" cy="137.7" r="1.66" fill="#ffffff" opacity="0.89"/><circle cx="236.1" cy="75.5" r="1.22" fill="#ffffff" opacity="0.56"/><circle cx="224.7" cy="232.1" r="0.63" fill="#ffffff" opacity="0.56"/><circle cx="155.7" cy="46.5" r="1.12" fill="#ffffff" opacity="0.73"/><circle cx="296.9" cy="43.4" r="1.80" fill="#ffffff" opacity="0.42"/><circle cx="242.2" cy="101.0" r="1.06" fill="#ffffff" opacity="0.72"/><circle cx="146.8" cy="164.8" r="1.18" fill="#ffffff" opacity="0.58"/>
<circle cx="160" cy="150" r="80" fill="#ffc52f" opacity="0.12"/><path d="M160 110 C140 82 104 96 118 128 C126 148 160 172 160 172 C160 172 194 148 202 128 C216 96 180 82 160 110 Z" fill="#ffc52f"/><polygon points="160,205 182,240 160,275 138,240" fill="#8b101c"/><circle cx="95" cy="255" r="16" fill="#ffc52f" opacity="0.85"/><circle cx="228" cy="250" r="18" fill="#8b101c" opacity="0.85"/>
<rect width="320" height="400" fill="url(#vin)"/>
<rect x="6" y="6" width="308" height="388" rx="18" fill="none" stroke="#ffc52f" stroke-width="2" opacity="0.5"/>
</svg>
